<?xml version="1.0" encoding="UTF-8" standalone="no"?>
<!-- Created with Inkscape (http://www.inkscape.org/) -->

<svg
   width="16"
   height="16"
   viewBox="0 0 16 16"
   version="1.1"
   id="svg1"
   xmlns="http://www.w3.org/2000/svg"
   xmlns:svg="http://www.w3.org/2000/svg">
  <defs
     id="defs1" />
  <g
     id="layer1">
    <path
       d="m 8.582539,0.00595875 c 0.6121851,0.00833865 1.2321697,0.09593631 1.844354,0.27112378 3.267591,0.93850577 5.548663,4.11691377 5.548663,7.73746107 0,3.6205484 -2.281072,6.7989564 -5.548663,7.7332914 -3.2675881,0.938506 -6.7301403,-0.596473 -8.4224239,-3.728999 -0.276849,-0.513051 -0.1091799,-1.163747 0.366531,-1.459898 0.475711,-0.29198 1.0878971,-0.116791 1.364745,0.392087 1.2438669,2.306639 3.7705951,3.424505 6.1764456,2.736266 2.4019503,-0.688237 4.0669393,-3.01156 4.0669393,-5.6727474 0,-2.6653573 -1.664989,-4.98451 -4.0669393,-5.6727475 C 7.5063402,1.6535587 4.979612,2.7714237 3.7357451,5.078063 3.6772591,5.16983 3.6109683,5.25325 3.5329844,5.3199903 l 0.019509,0.016669 0.00777,0.00836 h 1.4349448 c 0.5497973,0 0.998214,0.4796813 0.998214,1.0678112 0,0 0,1.0678117 -0.998214,1.0678117 H 0.00414354 V 2.1415815 c 0,0 -0.003936911,-1.0678114 0.99821286,-1.0678114 0.5497972,0 0.9982129,0.4796812 0.9982129,1.0678114 v 1.8019318 l 0.015582,0.012511 0.011697,0.012511 C 3.3029264,1.641045 5.5528056,0.21034435 7.970354,0.02681426 8.1731137,0.01013012 8.3758785,0.00595712 8.582539,0.00595875 Z m 0,0"
       fill="#2e3436"
       id="path1"
       style="stroke-width:1.03243" />
  </g>
</svg>
